<svg width="24" height="17" viewBox="0 0 24 17" fill="none" xmlns="http://www.w3.org/2000/svg">
<path opacity="0.75" d="M20.317 1.40921C18.7873 0.756946 17.147 0.27639 15.4319 0.00115457C15.4007 -0.00415737 15.3695 0.00911747 15.3534 0.0356678C15.1424 0.384356 14.9087 0.839249 14.7451 1.19679C12.9004 0.940147 11.0652 0.940147 9.25832 1.19679C9.09465 0.831301 8.85248 0.384356 8.64057 0.0356678C8.62449 0.0100033 8.59328 -0.00327153 8.56205 0.00115457C6.84791 0.27551 5.20756 0.756067 3.67693 1.40921C3.66368 1.41452 3.65233 1.42337 3.64479 1.43487C0.533392 5.75461 -0.31895 9.96817 0.0991801 14.1295C0.101072 14.1498 0.11337 14.1693 0.130398 14.1817C2.18321 15.5827 4.17171 16.4332 6.12328 16.9969C6.15451 17.0058 6.18761 16.9951 6.20748 16.9712C6.66913 16.3854 7.08064 15.7676 7.43348 15.118C7.4543 15.08 7.43442 15.0348 7.39186 15.0198C6.73913 14.7897 6.1176 14.5091 5.51973 14.1906C5.47244 14.1649 5.46865 14.102 5.51216 14.0719C5.63797 13.9843 5.76382 13.8932 5.88396 13.8011C5.90569 13.7843 5.93598 13.7808 5.96153 13.7914C9.88928 15.4579 14.1415 15.4579 18.023 13.7914C18.0485 13.7799 18.0788 13.7834 18.1015 13.8002C18.2216 13.8923 18.3475 13.9843 18.4742 14.0719C18.5177 14.102 18.5149 14.1649 18.4676 14.1906C17.8697 14.5153 17.2482 14.7897 16.5945 15.0189C16.552 15.034 16.533 15.08 16.5538 15.118C16.9143 15.7667 17.3258 16.3845 17.7789 16.9704C17.7978 16.9951 17.8319 17.0058 17.8631 16.9969C19.8241 16.4332 21.8126 15.5827 23.8654 14.1817C23.8834 14.1693 23.8948 14.1507 23.8967 14.1304C24.3971 9.31942 23.0585 5.14042 20.3482 1.43575C20.3416 1.42337 20.3303 1.41452 20.317 1.40921ZM8.02002 11.5957C6.8375 11.5957 5.86313 10.5868 5.86313 9.34776C5.86313 8.10873 6.8186 7.09984 8.02002 7.09984C9.23087 7.09984 10.1958 8.11759 10.1769 9.34776C10.1769 10.5868 9.22141 11.5957 8.02002 11.5957ZM15.9947 11.5957C14.8123 11.5957 13.8379 10.5868 13.8379 9.34776C13.8379 8.10873 14.7933 7.09984 15.9947 7.09984C17.2056 7.09984 18.1705 8.11759 18.1516 9.34776C18.1516 10.5868 17.2056 11.5957 15.9947 11.5957Z" fill="white"/>
</svg>
