<svg width="24" height="24" viewBox="5 10 30 25" fill="none" xmlns="http://www.w3.org/2000/svg">

<path opacity="0.75" fill="white" d="M18.9 26.7c.5 0 .8.4.8.8 0 .5-.4.8-.8.8-.5 0-.8-.4-.8-.8-.1-.4.3-.8.8-.8m13-5.1c-.5 0-.8-.4-.8-.8s.4-.8.8-.8c.5 0 .8.4.8.8s-.3.8-.8.8m0-3.4c-1.4 0-2.6 1.2-2.6 2.6 0 .3 0 .6.1.8L21 26.1c-.5-.7-1.3-1.1-2.1-1.1-1 0-1.9.6-2.3 1.4l-7.6-4c-.8-.4-1.4-1.8-1.3-3 0-.6.3-1.1.6-1.3.2-.1.5-.1.7 0h.1c2 1.1 8.7 4.5 8.9 4.7.4.2.7.3 1.4-.1l13.6-7c.2-.1.4-.3.4-.6 0-.4-.4-.6-.4-.6-.8-.4-2-.9-3.1-1.5-2.5-1.2-5.3-2.5-6.6-3.1-1.1-.6-1.9-.1-2.1 0l-.3.1c-5.6 2.8-13.1 6.5-13.5 6.7-.8.5-1.2 1.4-1.3 2.5-.1 1.8.8 3.7 2.2 4.4l8.1 4.2c.2 1.3 1.3 2.2 2.5 2.2 1.4 0 2.6-1.1 2.6-2.5l8.9-4.8c.5.4 1 .5 1.6.5 1.4 0 2.6-1.2 2.6-2.6-.1-1.3-1.3-2.4-2.7-2.4"  />
</svg>