<svg width="21" height="16" viewBox="0 0 21 16" fill="none" xmlns="http://www.w3.org/2000/svg">
<path opacity="0.75" d="M2.4902 3.26396C2.51629 3.01656 2.41798 2.77204 2.22549 2.60553L0.264706 0.338624V0H6.35294L11.0588 9.90476L15.1961 0H21V0.338624L19.3235 1.88125C19.179 1.98698 19.1073 2.16075 19.1373 2.33275V13.6673C19.1073 13.8392 19.179 14.013 19.3235 14.1188L20.9608 15.6614V16H12.7255V15.6614L14.4216 14.0811C14.5882 13.9212 14.5882 13.8742 14.5882 13.6296V4.46796L9.87255 15.9624H9.23529L3.7451 4.46796V12.1717C3.69932 12.4955 3.81141 12.8216 4.04902 13.0559L6.2549 15.6238V15.9624H0V15.6238L2.20588 13.0559C2.44176 12.8212 2.54731 12.493 2.4902 12.1717V3.26396Z" fill="white"/>
</svg>
