<svg xmlns="http://www.w3.org/2000/svg" viewBox="0 0 73 63" style="enable-background:new 0 0 73 63" xml:space="preserve"><g style="opacity:.75"><linearGradient id="a" gradientUnits="userSpaceOnUse" x1="395.1" y1="-214.443" x2="395.1" y2="-272.747" gradientTransform="matrix(1 0 0 -1 -359.5 -211.5)"><stop offset="0" style="stop-color:#fff"/><stop offset="1" style="stop-color:#fff;stop-opacity:.25"/></linearGradient><path d="m16.8 16.1-.4 1.2-6.4-4.8H4.5L2 8.6c1.4-.3 4.3-.9 4.8-.9s2.3-3.2 3.1-4.8l4.4.8L13 8.6c1.4 1.5 4.3 4.5 4.8 4.5l-.6 1.7c-1.7-1.2-3.5-2.6-4.4-3.5l4 4.8zm36.4-3 1.5 4.2 6.4-4.8h5.5l1-3.9c-.6-.1-1.4-.2-2.1-.2-.8 0-1.4 0-1.5-.3-.1-.3-.6-1.3-1.3-2.4-.6-1-1.2-2.1-1.6-2.9l-4.4.8L58 8.5c-1.3 1.6-4.3 4.6-4.8 4.6zM26.7 44.4c-.1-.5-.5-.9-1-1l-2.6-.6c-.2 0-.3-.1-.5-.2l-2.4-1.8c-.3-.2-.5-.5-.5-.9l-2.5-18v-.4C18 17 21 7.8 27.6 6c4.5-1.2 6.9-1.6 8-1.6h.2c1.1 0 3.5.4 8 1.6 6.6 1.8 9.6 11 10.3 15.6v.4l-2.7 18c0 .3-.2.6-.5.8l-2.2 1.8c-.1.1-.3.2-.5.3l-2.7.6c-.5.1-.9.5-1 1l-.7 3.7c-.1.5-.5.9-1 1l-7.1 1.7-7.2-1.7c-.5-.1-.9-.5-1-1l-.8-3.8zm6.4-13.5.4 1.7c.1.4 0 .7-.2 1-1.3 1.8-3.8 4.5-6.1 4.8-3.1.4-5.3-.8-5.6-1.9-.2-1-.2-8.4 1.6-8.7 1.3-.2 6.9 1 9.3 2.2.3.2.5.5.6.9zm2 5.7-1.8 6.3c-.2.4.2.9.6.9h3.9c.4 0 .7-.4.6-.8l-.8-3.5c0-.1 0-.1-.1-.2l-1.2-2.8c-.3-.5-1-.4-1.2.1zm3-4 .4-1.7c.1-.4.3-.7.6-.8 2.4-1.2 8-2.3 9.3-2.2 1.7.3 1.8 7.6 1.6 8.7-.2 1-2.4 2.2-5.6 1.9-2.3-.3-4.8-2.9-6.1-4.8-.2-.4-.2-.8-.2-1.1zm-28 19.1 10.3-8.9 1.8 1-.3 3.2s-.6.5-1.6 1.3c-2.4 2-7 5.8-8.8 7.6 0 0 1.7-.4 1.7-.3l1.3 4.9-4.4.8c-.8-1.6-2.6-4.9-3.1-4.8-.5.1-3.4-.5-4.8-.9l2.5-3.9h5.4zm15.6-5.1c.1.1.1.2.1.3l.8 4c.1.3.3.6.7.7l4 .8 1.8 3.5-.8-3.3 3.2.7h.3l2.7-.5-.7 3.2 1.8-3.4 4.6-.9c.3-.1.6-.3.7-.7l.8-4c0-.1.1-.2.1-.3.4-.5 1.2-.1 1.1.5l-.5 5.8c0 .3-.2.5-.4.6l-5.8 4.1c-.1.1-.2.1-.4.2l-4.1.6-4.1-.6c-.1 0-.3-.1-.4-.2l-5.8-4.1c-.2-.2-.4-.4-.4-.6l-.5-5.8c0-.7.8-1 1.2-.6zm23.8.4-.2-2.1c1.9 1.7 4.9 4.4 6.6 5.5l-6.6-6.2v-.5l1.8-1 10.3 8.9h5.5l2.5 3.9c-1.4.3-4.3.9-4.8.9-.5-.1-2.3 3.2-3.1 4.8l-4.4-.8 1.3-4.9c-3.8-4.1-6.7-6.8-8-7.9-.7-.4-.9-.6-.9-.6z" style="fill-rule:evenodd;clip-rule:evenodd;fill:url(#a)"/></g></svg>