<svg width="20" height="17" viewBox="0 0 20 17" fill="none" xmlns="http://www.w3.org/2000/svg">
<path opacity="0.75" d="M17.9525 4.23211C17.9647 4.41654 17.9647 4.60098 17.9647 4.78712C17.9647 10.4588 13.8371 17 6.28966 17V16.9966C4.06013 17 1.8769 16.3319 0 15.0723C0.324193 15.1131 0.65001 15.1335 0.97664 15.1344C2.82429 15.1361 4.61913 14.4876 6.07272 13.2934C4.31688 13.2585 2.77717 12.061 2.23928 10.3126C2.85436 10.4367 3.48812 10.4112 4.09181 10.2387C2.17753 9.8341 0.800325 8.07471 0.800325 6.03144C0.800325 6.01274 0.800325 5.99489 0.800325 5.97705C1.37071 6.30937 2.00934 6.49381 2.6626 6.51421C0.859638 5.25374 0.30388 2.7447 1.39265 0.783024C3.47593 3.4646 6.54966 5.0948 9.84928 5.26734C9.51859 3.77653 9.97034 2.21433 11.0364 1.16635C12.689 -0.458748 15.2882 -0.375453 16.8418 1.35249C17.7607 1.16295 18.6415 0.810222 19.4475 0.310454C19.1412 1.30404 18.5001 2.14804 17.6437 2.68435C18.457 2.58406 19.2517 2.35627 20 2.00865C19.4491 2.87219 18.7552 3.62439 17.9525 4.23211Z" fill="white"/>
</svg>
